<?xml version="1.0" encoding="UTF-8"?>
<!DOCTYPE svg PUBLIC "-//W3C//DTD SVG 1.1//EN" "http://www.w3.org/Graphics/SVG/1.1/DTD/svg11.dtd">
<!-- Creator: CorelDRAW -->
<svg xmlns="http://www.w3.org/2000/svg" xml:space="preserve" width="600px" height="600px" style="shape-rendering:geometricPrecision; text-rendering:geometricPrecision; image-rendering:optimizeQuality; fill-rule:evenodd; clip-rule:evenodd"
viewBox="0 0 600 750"
 xmlns:xlink="http://www.w3.org/1999/xlink">
 <defs>
  <style type="text/css">
   <![CDATA[
    .fil0 {fill:#1F1A17}
    .fil1 {fill:#060606}
    .fil18 {fill:#555555}
    .fil14 {fill:#636363}
    .fil19 {fill:#675718}
    .fil8 {fill:#818181}
    .fil16 {fill:#8F8F8F}
    .fil15 {fill:#947C21}
    .fil12 {fill:#A4A4A4}
    .fil4 {fill:#B1B1B1}
    .fil11 {fill:#B29626}
    .fil5 {fill:#BDBDBD}
    .fil3 {fill:#C1A229}
    .fil6 {fill:#C9C9C9}
    .fil13 {fill:#D0AF2C}
    .fil7 {fill:#E0E0E0}
    .fil10 {fill:#ECC732}
    .fil2 {fill:#FAD435}
    .fil9 {fill:#FFF03B}
    .fil17 {fill:white}
   ]]>
  </style>
 </defs>
 <g id="Livello_x0020_1">
  <metadata id="CorelCorpID_0Corel-Layer"/>
  <g id="_84096064">
   <path id="_78942840" class="fil0" d="M452.913 374.421l8.811 14.3445c8.8665,1.599 17.2005,5.5905 24.252,11.169 12.9225,10.2225 17.991,25.4505 15.906,41.598 -0.7935,6.135 -2.4255,12.048 -4.6515,15.9255l-17.637 20.577 -24.0735 6.636c-2.394,2.5245 -5.397,4.5885 -9.027,6.1095 -12.06,5.0535 -20.325,4.7415 -31.7505,-1.923l-8.466 -5.0355c0.771,10.8585 -2.2605,20.769 -8.6985,30.1455l-0.03 67.0665 10.3185 8.5995 -0.015 52.677 -202.294 59.6355c-16.0515,-20.991 -30.7725,-41.3415 -44.4075,-63.93l-4.671 -91.605c-5.1195,4.257 -11.991,7.653 -17.031,7.653 -13.251,0 -25.881,-13.26 -31.32,-24.0795 -5.3715,-10.6845 -6.5895,-21.2265 -5.808,-31.4505 0.6465,-8.472 2.202,-16.6095 8.115,-25.482l5.3145 -6.822c-1.6275,-1.9365 -2.958,-4.101 -3.891,-6.4125 -2.1555,-5.34 -3.093,-11.4105 -4.623,-16.9875l-9.567 -68.979c-0.003,-4.2165 1.2045,-8.2515 2.208,-12.3075l20.805 -79.428c4.9545,-18.918 16.788,-30.015 36.9135,-33.465 0.6495,-5.424 3.153,-10.857 9.2955,-13.278l20.5395 -5.502c-4.284,-4.6245 -6.1455,-11.112 -6.1455,-18.9045l-4.86 -92.5275c-1.0125,-19.2975 10.827,-34.8585 30.207,-38.406l10.5495 -0.882 -0.0675 -31.0965 101.046 0.93 0.375 30.1665c5.1915,0 10.2255,0.156 15.3105,1.431 19.0305,4.7715 26.8965,19.236 27.0855,38.1585l0.906 90.5265c0.075,7.5615 -4.17,15.129 -8.8875,21.027l23.613 2.268 12.066 3.105c10.875,4.683 18.804,12.255 24.096,24.8175 2.2155,8.4225 4.4025,16.731 6.6225,25.1625 3.519,12.3165 6.597,28.407 10.722,38.5785 6.4875,16.002 13.4625,31.2525 22.845,50.196z"/>
   <path id="_80733304" class="fil1" d="M285.517 152.279c0,1.3065 -3.156,3.1755 -4.7625,3.1755 -1.4385,0 -2.604,-2.8905 -3.1755,-3.9705 0.906,-1.353 1.728,-3.1755 3.969,-3.1755 2.3355,0 3.969,1.635 3.969,3.9705zm-3.174 13.4955c6.246,-1.455 11.682,-6.4875 7.938,-14.2905l3.969 0 0 -1.587c-4.053,-2.145 -8.868,-3.969 -15.0825,-3.969 -4.0635,0 -11.0625,2.391 -11.9085,5.556l4.7625 0c-0.237,10.686 -0.7905,8.976 7.146,14.2905l3.1755 0z"/>
   <path id="_81857648" class="fil1" d="M326.005 151.483c0,0.9675 -1.6425,2.382 -3.1755,2.382 -1.2915,0 -1.851,-2.172 -2.4255,-3.198l1.674 -3.129 3.132 -0.024c0.4155,1.7805 0.795,1.8255 0.795,3.969zm6.351 -1.587l0 -1.5885c-1.8495,-1.2375 -4.1445,-3.1755 -7.146,-3.1755l-2.3805 0c-4.6005,0 -9.327,1.8345 -10.32,5.5575l3.1755 0c-0.1095,4.8915 -0.0765,13.4955 6.351,13.4955l0.7935 0c5.9565,0 9.1395,-8.475 6.351,-14.289l3.1755 0z"/>
   <path id="_82516144" class="fil1" d="M301.395 191.177l-18.258 -3.1755 -3.5475 -1.809 -0.4875 -1.0965 -2.9805 4.8825 0.7605 0.5205 2.211 -1.4415 6.4245 2.1195 22.2285 2.382 19.59 -6.327 0.2565 0.7695 0 -3.969c-8.3385,2.2275 -12.345,7.1445 -26.1975,7.1445z"/>
   <path id="_217761824" class="fil1" d="M294.25 141.958c0.045,-1.4565 -1.4655,-4.2195 -2.9205,-5.6745 -1.455,-1.455 -4.356,-3.1035 -5.8125,-3.0585l-2.3805 0c-8.508,0 -15.252,2.805 -15.8775,10.32 4.542,-1.2135 5.274,-4.7625 11.9085,-4.7625l5.556 0c5.7855,0 8.2785,6.9375 9.5265,3.1755z"/>
   <path id="_83357008" class="fil1" d="M311.715 142.752c3.84,-1.026 4.5555,-4.764 9.5265,-4.764l4.764 0c2.5695,0 4.0695,3.144 6.351,3.9705 -0.786,-3.3705 -3.525,-9.5265 -7.146,-9.5265l-3.174 0c-5.712,0 -9.219,5.589 -10.3215,10.32z"/>
   <path id="_82516480" class="fil2" d="M198.987 95.1195c19.2405,1.602 138.044,21.2535 149.246,15.8775l-0.7935 -3.1755c-13.9965,1.1655 -140.879,-11.9505 -144.482,-15.0825l-3.9705 2.3805z"/>
   <polygon id="_83356672" class="fil2" points="133.096,496.813 135.479,507.134 153.738,506.34 151.356,497.607 150.563,496.02 "/>
   <polygon id="_218359400" class="fil2" points="477.633,430.923 478.427,440.45 491.129,437.274 489.54,426.954 "/>
   <polygon id="_83964152" class="fil2" points="198.987,502.371 198.987,503.164 207.266,500.568 208.513,503.164 215.658,503.164 216.453,496.813 214.906,495.951 209.279,498.332 210.058,496.004 201.369,496.02 200.575,489.669 "/>
   <path id="_83493384" class="fil2" d="M427.618 449.976l3.9705 7.938 3.213 -0.786 0.7395 -4.5345 9.543 0.558c-1.395,-2.334 -3.4035,-5.367 -4.764,-7.9395l-12.702 4.764z"/>
   <polygon id="_83831272" class="fil2" points="146.592,444.418 148.18,456.327 152.943,453.152 150.563,443.625 "/>
   <path id="_83241512" class="fil3" d="M283.137 133.225l2.3805 0c1.4565,-0.045 4.3575,1.602 5.8125,3.0585 1.455,1.455 2.9655,4.218 2.9205,5.6745l0 7.938 0 1.587 -3.969 0c3.744,7.803 -1.692,12.8355 -7.938,14.2905l0.7935 22.227 18.258 3.1755 -3.1755 -19.0515 -2.3805 0c-2.145,0 -2.19,-0.3795 -3.687,-0.753l4.4805 -33.384c0.7065,-4.857 -4.392,-7.275 -7.272,-8.8155l2.265 -3.6525 -6.9075 -8.127 -13.4895 -1.632 -3.969 0 -0.057 -1.251 -74.5665 -13.0395 -0.7935 0.7935c2.697,3.681 40.767,8.727 48.486,10.2615 7.461,1.482 17.706,2.6625 24.0225,5.3505 2.9775,1.266 17.1975,9.597 17.1975,12.174l0.0405 2.262 1.548 0.9135z"/>
   <path id="_218072592" class="fil3" d="M349.028 211.023l0.7935 -3.1755 -3.4395 2.9115 -28.2765 2.4735c-0.9465,-1.9785 -5.49,-7.7655 -7.1835,-7.7655 -0.057,0 -4.167,2.0955 -4.7625,2.3805l-2.739 -5.049 1.1505 -2.0955 -6.351 0 0 -1.587 3.1755 0c1.857,0 2.0535,0.237 3.1755,0.7935l1.5885 -0.7935 0 -3.1755 1.587 0 0 -2.382 -22.2285 -2.382c-1.2045,2.5575 4.8585,15.042 7.9395,16.671l-0.942 2.325c11.229,7.4775 13.089,3.7365 27.993,5.562 3.453,0.423 10.914,-0.6465 15.8475,-0.711 7.4265,-0.0975 8.199,-1.6335 12.672,-4.0005z"/>
   <polygon id="_81857072" class="fil3" points="273.611,89.5635 281.548,89.5635 281.548,60.1905 272.817,60.1905 "/>
   <polygon id="_80766144" class="fil3" points="177.553,511.896 174.378,519.042 193.646,511.128 192.633,519.885 205.338,520.629 206.255,519.177 210.102,514.278 194.224,514.278 194.224,511.102 198.987,503.164 198.987,502.371 "/>
   <path id="_82575392" class="fil3" d="M417.298 401.55l4.4835 12.0255c-1.6605,2.7795 -5.265,6.1275 -10.0395,6.234l-4.764 4.7625 0.195 2.757 19.6515 -9.9015 5.5575 -9.5265 -7.0875 4.0725 -0.057 -1.6905c-1.956,-2.9205 -3.657,-5.895 -5.5575,-8.733l0 -1.587 -2.382 1.587z"/>
   <polygon id="_82787576" class="fil3" points="279.962,238.016 279.962,252.305 288.693,253.098 293.457,252.305 291.075,251.511 288.693,251.511 288.693,237.22 "/>
   <polygon id="_84264864" class="fil3" points="139.447,518.247 141.069,522.396 156.914,519.042 156.914,515.866 "/>
   <polygon id="_82943880" class="fil3" points="477.633,449.976 477.702,453.381 487.158,450.769 489.54,446.007 "/>
   <path id="_83357400" class="fil4" d="M218.04 499.195l-1.587 6.351c14.481,0 12.948,-3.432 20.631,-3.978 6.396,-0.4545 15.8205,-2.595 21.633,-3.771 14.385,-2.91 27.885,-4.5075 42.231,-7.782 13.902,-3.174 27.243,-5.9385 41.262,-8.751 9.765,-1.959 33.4935,-8.2665 41.865,-8.6025l-2.499 -1.2525c3.7485,0 9.201,-0.405 10.32,-3.1755l-0.795 -3.969 -173.061 34.9305z"/>
   <path id="_84214720" class="fil4" d="M138.654 438.861l4.764 -1.587c-3.786,-5.9655 0.9225,-26.457 1.602,-32.5335 0.3165,-2.814 2.9775,-11.58 4.014,-14.244 1.4445,-3.7125 7.005,-5.1165 9.4815,-8.3955l7.1295 -0.3975 3.369 -0.021 0.6 7.1655c3.486,5.205 3.2325,3.408 6.1035,10.5675 1.32,3.291 2.6445,10.5165 5.805,11.661l-1.698 -11.2515c-0.684,-5.7555 -2.271,-5.088 -2.271,-8.595 0,-4.845 2.46,-16.029 2.382,-16.671l-1.599 -15.0825 -2.3715 -0.0015 -10.344 -1.449c-4.299,2.757 -12.8745,8.148 -15.0735,12.549 -2.0925,4.1895 -8.466,14.646 -9.375,17.616 -1.686,5.499 -6.4125,44.532 -2.5185,50.67z"/>
   <path id="_82510792" class="fil4" d="M379.988 273.738l0.7935 3.1755 8.733 0 7.761 3.5895 1.149 -0.4635 2.6235 51.6705 1.962 0.378 2.517 23.4015 1.452 0.0165 0 7.1445 2.382 0 2.6085 16.6305 1.3605 0.0405 0 2.382c0,2.739 3.969,5.748 3.969,11.9085l2.382 0.7935 3.1755 -1.5885 -2.8665 -8.031 -5.1285 -17.1165 0.8505 -0.255c-6.3045,-2.5455 -7.9395,-48.123 -7.9395,-60.3345l1.461 0.018 -1.1745 -11.4375 2.0955 1.8945 -0.7935 -3.1755 -1.5885 -5.5575 -3.969 -15.084 0 4.764c-4.638,-0.3855 -12.117,-6.4605 -17.4645,-5.5575l-6.351 0.7935z"/>
   <path id="_218967688" class="fil4" d="M143.418 268.182l3.969 11.907 3.969 0c0.729,8.769 25.0425,14.604 26.1855,17.559l21.4455 2.2875 0 -7.1445 -7.938 0 0 -1.587 -10.32 0c-12.168,0 -26.595,-12.936 -31.755,-20.6415l0 -5.556 -5.556 3.1755z"/>
   <path id="_83474280" class="fil4" d="M277.58 151.483c0.5715,1.08 1.737,3.9705 3.1755,3.9705 1.6065,0 4.7625,-1.869 4.7625,-3.1755 0,-2.3355 -1.6335,-3.9705 -3.969,-3.9705 -2.241,0 -3.063,1.8225 -3.969,3.1755z"/>
   <polygon id="_82875200" class="fil5" points="218.834,491.256 218.04,499.195 391.101,464.265 389.514,457.12 "/>
   <path id="_84422696" class="fil5" d="M143.418 437.274l5.556 -1.5885c-2.4255,-0.933 -0.4455,-5.5155 0.024,-9.5025 0.3975,-3.3705 0.93,-7.5435 1.8795,-10.821 1.818,-6.2685 4.0755,-14.6055 11.592,-14.6055l2.382 0c9.8115,0 21.8805,34.68 20.64,37.311l3.1755 3.1755 -2.382 -11.1135 -4.7625 -19.053c-3.1605,-1.1445 -4.485,-8.37 -5.805,-11.661 -2.871,-7.1595 -2.6175,-5.3625 -6.1035,-10.5675l-0.6 -7.1655 -3.369 0.021 -7.1295 0.3975c-2.4765,3.279 -8.037,4.683 -9.4815,8.3955 -1.0365,2.664 -3.6975,11.43 -4.014,14.244 -0.6795,6.0765 -5.388,26.568 -1.602,32.5335z"/>
   <path id="_82722384" class="fil5" d="M422.856 392.817l2.382 -1.587c-3.342,-6.966 -11.9085,-43.317 -11.9085,-53.982l0.057 -10.4685 2.325 0.942 0.042 -4.038 1.545 0.8625 -7.1445 -26.991 -2.0955 -1.8945 1.1745 11.4375 -1.461 -0.018c0,12.2115 1.635,57.789 7.9395,60.3345l-0.8505 0.255 5.1285 17.1165 2.8665 8.031z"/>
   <path id="_218252944" class="fil5" d="M379.194 265.007l0.7935 8.7315 6.351 -0.7935c5.3475,-0.903 12.8265,5.172 17.4645,5.5575l0 -4.764 -3.1755 -7.938 0 2.382 -10.3155 -0.8385c-1.488,-3.6315 -7.6065,-2.415 -11.118,-2.337z"/>
   <polygon id="_82575224" class="fil6" points="218.834,491.256 389.514,457.12 387.735,450.029 217.296,483.572 "/>
   <path id="_81397912" class="fil6" d="M191.049 242.778l-11.9085 2.382 26.7015 11.829c1.3665,1.32 11.5005,8.0175 14.58,8.0175l7.1445 0 147.659 -11.9085 -0.8625 -1.545 0.0675 -1.6305 -1.428 -1.746 0.591 2.5575c-13.581,-3.192 -66.9885,5.3835 -85.671,5.562 -11.856,0.1125 -30.552,1.7985 -42.834,3.21 -5.874,0.6735 -15.189,0.756 -21.195,1.8675 -7.2675,1.347 -7.9275,-5.1 -16.9665,-5.1l0.372 -0.8025 -5.784 -2.685c0.9255,-3.7005 7.482,-3.6165 10.968,-6.039l-4.725 -0.984 -0.0375 -2.1915 9.5265 -2.3805 -4.764 0 -21.4335 1.587z"/>
   <path id="_82511272" class="fil6" d="M148.974 435.685l11.115 -1.587 3.1755 -7.1445 10.0515 0.183 4.2375 7.755 7.938 3.1755c1.2405,-2.631 -10.8285,-37.311 -20.64,-37.311l-2.382 0c-7.5165,0 -9.774,8.337 -11.592,14.6055 -0.9495,3.2775 -1.482,7.4505 -1.8795,10.821 -0.4695,3.987 -2.4495,8.5695 -0.024,9.5025z"/>
   <path id="_218671280" class="fil6" d="M425.238 391.23l7.938 -2.382 -3.219 -13.518 1.5345 -3.1365 -0.4545 -5.799 6.903 6.576c-5.7165,-14.1945 -15.5235,-32.0475 -20.6415,-48.4245l-1.545 -0.8625 -0.042 4.038 -2.325 -0.942 -0.057 10.4685c0,10.665 8.5665,47.016 11.9085,53.982z"/>
   <path id="_83217056" class="fil6" d="M148.974 265.007l0 5.556c5.16,7.7055 19.587,20.6415 31.755,20.6415l10.32 0 0 1.587 7.938 0 -0.7935 -6.351c-19.665,0 -42.4935,-7.7835 -46.044,-23.022l-3.1755 1.5885z"/>
   <path id="_84265232" class="fil6" d="M377.606 262.625l1.5885 2.382c3.5115,-0.078 9.63,-1.2945 11.118,2.337l10.3155 0.8385 0 -2.382 -0.861 -1.5465 -2.3145 -4.011 -2.2095 2.583 -17.637 -4.17 0 3.969z"/>
   <path id="_80492160" class="fil6" d="M320.404 150.667c0.5745,1.026 1.134,3.198 2.4255,3.198 1.533,0 3.1755,-1.4145 3.1755,-2.382 0,-2.1435 -0.3795,-2.1885 -0.795,-3.969l-3.132 0.024 -1.674 3.129z"/>
   <path id="_81760520" class="fil7" d="M324.417 245.953c-2.295,3.1335 -7.872,3.969 -13.4955,3.969l-4.7625 0.7935c-1.5615,1.869 -8.9775,1.5885 -12.702,1.5885l-4.764 0.7935 -36.5175 0c-7.731,0 -12.303,-0.4515 -18.4455,-1.3995 -8.262,-1.275 -9.7485,-2.958 -14.8965,-4.158l0 -6.3495 -1.587 0 -9.5265 2.3805 0.0375 2.1915 4.725 0.984c-3.486,2.4225 -10.0425,2.3385 -10.968,6.039l5.784 2.685 -0.372 0.8025c9.039,0 9.699,6.447 16.9665,5.1 6.006,-1.1115 15.321,-1.194 21.195,-1.8675 12.282,-1.4115 30.978,-3.0975 42.834,-3.21 18.6825,-0.1785 72.09,-8.754 85.671,-5.562l-0.591 -2.5575 1.428 1.746c2.403,1.761 3.1755,4.56 3.1755,8.733l17.637 4.17 2.2095 -2.583 -0.9255 -2.2485 -0.6615 -0.927 -7.1445 -7.938 -6.351 -3.1755 -16.629 -2.007 6.5355 2.9355 -0.285 0.879 -45.2265 -12c0.0345,4.857 1.4535,9.177 -2.3475,10.1925z"/>
   <path id="_81751904" class="fil7" d="M200.575 638.121l7.1445 10.32c5.4915,-0.123 41.301,-10.4985 47.631,-12.702 6.5175,-2.268 44.679,-10.518 46.044,-14.289l-7.938 -8.733 -92.8815 25.404z"/>
   <polygon id="_82931200" class="fil7" points="302.19,610.335 310.921,619.861 395.484,596.48 391.101,591.282 385.545,587.313 "/>
   <path id="_217896568" class="fil7" d="M152.149 263.418c3.5505,15.2385 26.379,23.022 46.044,23.022 0,-10.2195 -3.8295,-17.6805 -7.938,-23.8155l-26.9685 -1.893 -1.611 0.306c-3.783,0 -6.171,1.599 -9.5265,2.3805z"/>
   <polygon id="_81739096" class="fil7" points="433.176,388.848 446.705,387.241 437.94,372.971 431.037,366.394 431.491,372.193 429.957,375.33 "/>
   <polygon id="_84264752" class="fil7" points="160.089,434.099 177.553,434.892 173.316,427.137 163.265,426.954 "/>
   <path id="_84081632" class="fil8" d="M392.69 476.173l0 7.938c-7.5795,0.1695 -16.0515,4.035 -22.9905,4.794 -6.2205,0.6825 -17.316,3.2415 -23.6775,4.902 -14.3535,3.7455 -31.8465,5.9805 -46.101,10.263 -12.654,3.8025 -32.7195,7.464 -46.212,10.1535 -13.893,2.7675 -33.5295,8.787 -48.3705,8.787l-1.587 1.587 -2.382 0.795c-0.5325,0.7935 -2.4435,2.766 -2.5575,3.201l0.9105 6.8475 74.04 -16.491 56.2125 -11.817c0.624,-1.881 2.583,-0.957 6.8265,-1.9035 2.8635,-0.639 6.0435,-1.3155 8.424,-1.899 6.0855,-1.4895 11.322,-2.331 17.625,-3.8085 5.952,-1.395 10.857,-2.4405 16.809,-3.831 7.587,-1.7715 13.0305,-0.111 13.0305,-8.4045l0 -2.382 1.587 0 -1.587 -8.7315z"/>
   <path id="_84221040" class="fil8" d="M135.479 277.709c0.207,9.3105 14.64,17.844 8.733,31.7535 -3.417,8.046 -7.7895,24.045 -9.99,33.6735 -2.5965,11.3565 -6.585,22.8195 -10.152,33.51 -5.676,17.01 -2.0865,20.343 -2.0865,39.1935l1.5885 0 0 2.382c0,3.201 0.021,6.192 2.145,7.17l1.863 19.146 1.548 -0.912 -3.2235 -34.926 0.048 -21.438c0,-10.7325 10.32,-21.552 10.32,-33.342 4.221,-1.704 6.9315,-20.067 9.84,-25.0905 4.0845,-7.0575 7.8345,-15.435 11.595,-22.542l-11.8545 -15.3045 0.7395 -0.573c-3.15,-0.84 -8.7315,-11.406 -8.7315,-15.0825 0,-1.2045 1.5615,-0.897 2.382,-3.969l-4.764 6.351z"/>
   <path id="_84266288" class="fil8" d="M195.018 453.152l3.1755 2.3805 0.7935 -8.7315 0 -9.5265 1.4415 -0.0105 0.9405 -15.0735 0 -6.351 1.425 -0.0165 12.8685 -123.743 -0.798 -0.0825c5.0055,-2.649 3.969,-14.778 3.969,-22.2285 -4.995,-0.546 -10.35,-9.5265 -20.64,-9.5265l7.4535 4.1325 3.66 0.6315 3.633 3.5715 -14.358 144.839 -1.182 0.042 -2.382 39.693z"/>
   <path id="_218359344" class="fil8" d="M391.101 352.331l5.34 28.326 9.864 22.65 5.4375 -4.1385c-2.0235,-2.91 -2.3295,-8.118 -4.8465,-11.8245 -4.296,-6.327 -2.5785,-5.1375 -5.4735,-11.991 -1.5015,-3.552 -8.661,-22.977 -8.775,-26.13l-1.5465 -0.861 0 3.969z"/>
   <path id="_84316136" class="fil9" d="M143.418 461.089l-7.9395 12.702 -2.382 7.938 0 15.084 17.466 -0.7935c-4.6695,-9.7305 5.3475,-22.8675 10.32,-26.1975 2.694,-1.71 9.6945,-3.969 14.289,-3.969 12.5775,0 25.404,11.6445 25.404,23.8155l0.7935 6.351 8.6895 -0.0165 -0.78 2.328 5.628 -2.3805 1.5465 0.8625c0.414,-1.7805 0.7935,-1.8255 0.7935,-3.969 0,-8.262 -4.329,-22.428 -10.992,-27.921 -2.3295,-5.751 -19.3545,-13.671 -25.029,-14.6505 -9.6435,-1.665 -22.764,0.4635 -28.2825,5.259l-9.525 5.5575z"/>
   <path id="_80860088" class="fil9" d="M202.957 92.739c3.603,3.132 130.485,16.248 144.482,15.0825l-2.382 -6.351 -2.3805 -3.1755 -0.7935 -0.7935c-5.49,-4.3905 -12.72,-6.351 -19.8465,-6.351l-108.759 0 -10.32 1.5885z"/>
   <path id="_83908632" class="fil9" d="M422.063 399.168l4.7625 9.5265 1.5885 0 7.359 -2.8515 -3.39 2.058 -5.5575 9.5265 -2.382 21.4335 3.1755 11.115 12.702 -4.764 -1.587 -3.1755 0 -1.587 0 -1.5885 -0.7935 -7.938c-0.1275,-3.6375 1.113,-6.4275 3.1755,-7.938l3.969 -4.764 3.969 -3.1755 7.1445 -0.7935 0.7935 0c11.508,0 16.83,8.73 20.6415,16.671l11.907 -3.969 -2.382 -7.1445c-2.433,-7.305 -13.917,-14.9505 -20.7495,-17.355 -5.0445,-1.776 -8.1975,-2.4915 -14.973,-2.4915 -5.6805,0 -10.2915,4.4295 -14.2905,4.7625l2.2065 -1.866 -3 -6.867c-4.374,-2.775 -11.8725,1.0755 -14.289,3.1755z"/>
   <path id="_83356840" class="fil9" d="M150.563 443.625l2.3805 9.5265c7.1235,-1.6605 10.506,-5.5575 21.435,-5.5575l-3.1755 -3.969c-2.772,-0.6465 -2.673,-1.5885 -5.5575,-1.5885l-6.351 0 -8.7315 1.5885z"/>
   <path id="_82047568" class="fil10" d="M195.018 98.295l8.8275 1.473 2.3115 1.5345 107.147 15.252c1.62,2.4195 2.748,3.231 5.238,5.082 3.72,2.7645 2.898,2.922 5.256,5.859 2.6445,3.294 9.3525,2.7525 9.3525,12.8745l0.1755 0.8205 -0.969 7.1175 0 1.5885 -2.8395 27.264 7.8525 -9.285 9.276 8.2185c3.3885,-14.5425 2.382,-29.853 2.382,-47.6325l0 -3.1755 -0.795 -14.289c-11.202,5.376 -130.005,-14.2755 -149.246,-15.8775l-3.969 3.1755z"/>
   <polygon id="_80492568" class="fil10" points="299.015,89.5635 307.104,89.553 306.159,72.8925 306.159,60.984 299.015,60.984 "/>
   <polygon id="_82604360" class="fil10" points="198.987,503.164 194.224,511.102 212.483,510.309 215.658,503.164 208.513,503.164 207.266,500.568 "/>
   <path id="_83830312" class="fil10" d="M319.654 234.045l-3.969 0.795 0 13.4955c3.123,-0.729 6.15,-1.7805 8.7315,-2.382 1.038,-2.0925 0.7935,0.654 0.7935,-2.382l0 -10.32 -5.556 0.7935z"/>
   <polygon id="_83965016" class="fil10" points="135.479,507.134 137.067,513.485 156.914,511.102 153.738,506.34 "/>
   <polygon id="_82575504" class="fil10" points="478.427,440.45 477.633,449.976 489.54,446.007 491.129,437.274 "/>
   <polygon id="_83218856" class="fil10" points="431.589,457.914 434.765,462.678 448.26,456.327 445.084,453.152 435.542,452.594 434.802,457.128 "/>
   <path id="_84264944" class="fil10" d="M419.68 399.963l0 1.587c1.9005,2.838 3.6015,5.8125 5.5575,8.733l3.1755 -1.5885 -1.5885 0 -4.7625 -9.5265 -2.382 0.795z"/>
   <path id="_83474592" class="fil11" d="M191.049 103.853l10.1895 3.066 31.0905 5.667c1.2495,3.0945 8.577,2.7465 11.793,4.0845 2.6895,1.1175 3.4725,7.575 4.578,11.298 2.5095,8.448 4.605,16.011 7.1505,24.6045 2.517,8.4975 4.3785,16.2555 6.942,24.813 1.3605,4.5465 4.8315,23.772 7.6425,24.906l-0.783 0.3345 5.5455 13.161 2.382 0.0045 31.755 2.3775 23.022 0c3.78,0 5.7225,-0.5115 9.063,-1.257 6.2085,-1.386 4.332,-2.6325 7.608,-3.507l0 -2.382c-4.473,2.367 -5.2455,3.903 -12.672,4.0005 -4.9335,0.0645 -12.3945,1.134 -15.8475,0.711 -14.904,-1.8255 -16.764,1.9155 -27.993,-5.562l0.942 -2.325c-3.081,-1.629 -9.144,-14.1135 -7.9395,-16.671l-6.4245 -2.1195 -2.211 1.4415 -0.7605 -0.5205 2.9805 -4.8825 0.4875 1.0965 3.5475 1.809 -0.7935 -22.227 -3.1755 0c-7.9365,-5.3145 -7.383,-3.6045 -7.146,-14.2905l-4.7625 0c0.846,-3.165 7.845,-5.556 11.9085,-5.556 6.2145,0 11.0295,1.824 15.0825,3.969l0 -7.938c-1.248,3.762 -3.741,-3.1755 -9.5265,-3.1755l-5.556 0c-6.6345,0 -7.3665,3.549 -11.9085,4.7625 0.6255,-7.515 7.3695,-10.32 15.8775,-10.32l-1.548 -0.9135 -0.0405 -2.262c0,-2.577 -14.22,-10.908 -17.1975,-12.174 -6.3165,-2.688 -16.5615,-3.8685 -24.0225,-5.3505 -7.719,-1.5345 -45.789,-6.5805 -48.486,-10.2615l-0.7935 1.5885z"/>
   <polygon id="_217898168" class="fil11" points="262.497,89.5635 273.611,89.5635 272.817,60.1905 261.702,60.1905 261.702,72.8925 "/>
   <polygon id="_81397632" class="fil11" points="263.291,252.305 279.962,252.305 279.962,238.016 262.497,238.016 "/>
   <polygon id="_81397072" class="fil11" points="406.979,424.572 406.185,426.161 402.216,438.861 404.511,438.711 423.581,427.749 424.443,438.861 426.825,417.428 407.173,427.329 "/>
   <polygon id="_83965496" class="fil11" points="116.426,485.7 114.838,492.844 131.548,480.818 133.096,481.73 135.479,473.791 "/>
   <polygon id="_83965304" class="fil11" points="437.94,466.647 441.167,470.73 450.64,466.647 450.64,460.158 449.847,457.914 449.933,460.458 "/>
   <polygon id="_81397800" class="fil11" points="137.861,449.976 139.505,462.749 143.418,459.503 142.623,446.801 "/>
   <path id="_80821240" class="fil12" d="M133.096 441.243l5.5575 -2.382c-3.894,-6.138 0.8325,-45.171 2.5185,-50.67 0.909,-2.97 7.2825,-13.4265 9.375,-17.616 2.199,-4.401 10.7745,-9.792 15.0735,-12.549l10.344 1.449 2.3715 0.0015 1.599 15.0825c0.078,0.642 -2.382,11.826 -2.382,16.671 0,3.507 1.587,2.8395 2.271,8.595l1.698 11.2515 4.7625 19.053 -4.7625 -31.755c-1.71,-9.9465 14.289,-62.769 14.289,-77.7975 -1.032,-3.87 -14.2845,-6.351 -19.0515,-6.351 -3.51,0 -14.3115,9.9255 -16.89,12.4815 -1.674,1.659 -9.231,16.635 -10.101,19.272 -1.9545,5.916 -8.0655,15.702 -9.3795,19.9935 -1.509,4.92 -5.7405,17.3175 -9.6735,18.906l0 19.8465 0.9585 23.0145 1.422 0.0075 0 13.4955z"/>
   <path id="_81399352" class="fil12" d="M391.101 348.361l1.5465 0.861c0.114,3.153 7.2735,22.578 8.775,26.13 2.895,6.8535 1.1775,5.664 5.4735,11.991 2.517,3.7065 2.823,8.9145 4.8465,11.8245l7.938 -4.7625 -2.382 -0.7935c0,-6.1605 -3.969,-9.1695 -3.969,-11.9085l0 -2.382 -1.3605 -0.0405 -2.6085 -16.6305 -2.382 0 0 -7.1445 -1.452 -0.0165 -2.517 -23.4015 -1.962 -0.378 -2.6235 -51.6705 -1.149 0.4635 -7.761 -3.5895 -8.733 0 10.32 71.448z"/>
   <path id="_83131568" class="fil12" d="M175.171 245.953l-0.7935 0.7935c1.131,3.1245 11.1375,5.6535 15.3945,6.8325 6.1125,1.6935 11.754,5.7495 16.791,6.4545l4.953 2.6355 0.966 3.1305 3.9705 0c0.8265,1.236 1.0515,2.382 3.1755,2.382l15.078 -0.0525 127.817 -11.856 10.32 0 0 2.382c0,2.682 3.69,16.1445 4.665,18.357 0.618,1.404 2.415,18.738 2.4765,21.339 0.1425,6.048 3.195,12.573 3.198,19.824 0.003,8.1015 0.615,14.5305 1.878,21.9375 1.7055,10.0095 11.472,78.024 13.1865,80.49l3.1755 0 -10.3215 -68.2725 -13.4955 -89.706 -2.3805 -9.5265 -147.659 11.9085 -7.1445 0c-3.0795,0 -13.2135,-6.6975 -14.58,-8.0175l-26.7015 -11.829 -3.969 0.7935z"/>
   <path id="_81397296" class="fil12" d="M216.453 505.547l-2.382 6.3495c9.8925,0 38.6505,-4.623 46.242,-6.9465 3.7815,-1.158 4.9875,-3.0165 10.1145,-3.381 3.885,-0.276 7.9215,-1.506 11.3115,-2.1825 7.6725,-1.5315 14.676,-2.802 22.365,-4.626 14.4855,-3.438 30.1755,-6.2145 44.184,-9.006 7.7565,-1.545 39.711,-7.3305 44.4015,-9.5805l-0.7935 -7.9395c-1.119,2.7705 -6.5715,3.1755 -10.32,3.1755l2.499 1.2525c-8.3715,0.336 -32.1,6.6435 -41.865,8.6025 -14.019,2.8125 -27.36,5.577 -41.262,8.751 -14.346,3.2745 -27.846,4.872 -42.231,7.782 -5.8125,1.176 -15.237,3.3165 -21.633,3.771 -7.683,0.546 -6.15,3.978 -20.631,3.978z"/>
   <path id="_82516032" class="fil12" d="M198.194 304.7l0.7935 -4.764 -21.4455 -2.2875c-1.143,-2.955 -25.4565,-8.79 -26.1855,-17.559l-3.969 0 -3.969 -11.907 -0.795 0.7935 3.981 13.491 10.5345 8.583 0.5685 -0.6405 0 3.9705 0.549 -0.9 12.4335 7.5825 5.2755 0.462c4.2795,2.865 15.285,3.1755 22.2285,3.1755z"/>
   <path id="_218359512" class="fil13" d="M311.715 142.752c1.1025,-4.731 4.6095,-10.32 10.3215,-10.32l3.174 0c3.621,0 6.36,6.156 7.146,9.5265 -2.2815,-0.8265 -3.7815,-3.9705 -6.351,-3.9705l-4.764 0c-4.971,0 -5.6865,3.738 -9.5265,4.764zm-119.079 -41.2815l74.5665 13.0395 0.057 1.251 3.969 0 13.4895 1.632 6.9075 8.127 -2.265 3.6525c2.88,1.5405 7.9785,3.9585 7.272,8.8155l-4.4805 33.384c1.497,0.3735 1.542,0.753 3.687,0.753l2.3805 0 3.1755 19.0515c13.8525,0 17.859,-4.917 26.1975,-7.1445l0 3.969 -0.2565 -0.7695 -19.59 6.327 0 2.382 -1.587 0 0 3.1755 4.0095 -0.582c-0.981,2.385 0.9885,0.3645 -2.4225,2.169l-3.1755 0 -1.1505 2.0955 2.739 5.049c0.5955,-0.285 4.7055,-2.3805 4.7625,-2.3805 1.6935,0 6.237,5.787 7.1835,7.7655l28.2765 -2.4735 3.4395 -2.9115 -0.7935 -79.386c0,17.7795 1.0065,33.09 -2.382,47.6325l-9.276 -8.2185 -7.8525 9.285 2.8395 -27.264 -3.1755 0c2.7885,5.814 -0.3945,14.289 -6.351,14.289l-0.7935 0c-6.4275,0 -6.4605,-8.604 -6.351,-13.4955l-3.1755 0c0.993,-3.723 5.7195,-5.5575 10.32,-5.5575l2.3805 0c3.0015,0 5.2965,1.938 7.146,3.1755l0.969 -7.1175 -0.1755 -0.8205c0,-10.122 -6.708,-9.5805 -9.3525,-12.8745 -2.358,-2.937 -1.536,-3.0945 -5.256,-5.859 -2.49,-1.851 -3.618,-2.6625 -5.238,-5.082l-107.147 -15.252 -2.3115 -1.5345 -8.8275 -1.473 -2.382 3.1755z"/>
   <polygon id="_81756880" class="fil13" points="281.548,89.5635 299.015,89.5635 299.015,60.984 287.106,60.1905 281.548,60.1905 "/>
   <polygon id="_218359592" class="fil13" points="293.457,237.22 288.693,237.22 288.693,251.511 291.075,251.511 301.395,250.716 306.159,250.716 310.921,249.923 315.685,248.336 315.685,234.84 "/>
   <polygon id="_83964824" class="fil13" points="128.334,471.409 124.365,474.585 122.777,476.173 118.014,483.318 116.426,485.7 135.479,473.791 143.418,461.089 "/>
   <polygon id="_83489144" class="fil13" points="137.067,513.485 139.447,518.247 156.914,515.866 156.914,511.102 "/>
   <polygon id="_218251888" class="fil13" points="434.765,462.678 437.94,466.647 449.933,460.458 449.847,457.914 449.185,456.988 448.26,456.327 "/>
   <polygon id="_82516424" class="fil13" points="194.224,511.102 194.224,514.278 210.102,514.278 212.483,510.309 "/>
   <polygon id="_82515416" class="fil13" points="142.623,446.801 143.418,459.503 148.18,456.327 146.592,444.418 "/>
   <path id="_218252872" class="fil14" d="M169.614 573.818c0,8.5965 0.6795,22.5555 1.6635,30.885 1.0005,8.4555 0.045,23.1315 1.6305,30.918 0.522,2.559 24.6735,37.5435 26.874,39.018l10.32 13.4955 -2.382 -39.693 -7.1445 -10.32 -4.818 -84.9405 95.2485 -21.741 2.451 81.2775 7.938 8.733 1.557 0.7935 0.825 33.342 0 -16.671 0.6315 0.006 0.9555 13.4895 3.1755 3.1755 3.1755 2.382 -0.7935 -38.106 -8.7315 -9.5265 -2.349 -80.9745 2.349 0.0015c1.779,0 1.7415,-0.6285 3.174,-1.5885l80.2155 -18.105c5.442,-4.896 8.697,-18.081 8.697,-24.7635l-1.587 0 0 2.382c0,8.2935 -5.4435,6.633 -13.0305,8.4045 -5.952,1.3905 -10.857,2.436 -16.809,3.831 -6.303,1.4775 -11.5395,2.319 -17.625,3.8085 -2.3805,0.5835 -5.5605,1.26 -8.424,1.899 -4.2435,0.9465 -6.2025,0.0225 -6.8265,1.9035l-56.2125 11.817 -74.04 16.491 -0.9105 -6.8475c0.114,-0.435 2.025,-2.4075 2.5575,-3.201l-6.351 4.7625c-2.397,3.579 -13.4385,8.3025 -18.5805,10.0665 -5.976,2.049 -2.8035,-2.028 -3.9585,-8.1675 -0.6165,-3.2775 -1.209,-9.8235 0.3105,-12.219l1.5885 -0.7935 3.1755 -7.146c0.207,-2.4825 0.7935,-2.82 0.7935,-5.556l0 -3.1755c0,-5.6205 -2.2365,-11.2725 -5.5575,-13.4955l-6.873 -5.8695 3.6975 90.018z"/>
   <path id="_83310208" class="fil14" d="M118.808 439.656c1.575,5.739 2.628,11.8305 4.1775,15.669 1.707,4.227 6.747,8.1465 11.7,8.1465l3.45 -0.0435 -1.923 -11.1045 1.6485 -2.3475 4.7625 -3.1755 3.969 -2.382 3.9705 -0.7935 8.7315 -1.5885 6.351 0c2.8845,0 2.7855,0.942 5.5575,1.5885l2.382 0 1.9425 3.801 11.5515 2.5545 2.2215 -5.634 -0.633 -3.1035 -3.1755 -3.1755 -7.938 -3.1755 -17.4645 -0.7935 -11.115 1.587 -5.556 1.5885 -4.764 1.587 -5.5575 2.382 -3.969 2.382 -1.548 0.912 -1.863 -19.146c-2.124,-0.978 -2.145,-3.969 -2.145,-7.17l0 -2.382 -1.5885 0c0,-18.8505 -3.5895,-22.1835 2.0865,-39.1935 3.567,-10.6905 7.5555,-22.1535 10.152,-33.51 2.2005,-9.6285 6.573,-25.6275 9.99,-33.6735 5.907,-13.9095 -8.526,-22.443 -8.733,-31.7535 -2.949,2.16 -11.829,40.062 -13.5015,46.8315 -1.5285,6.189 -12.312,45.4395 -12.309,48.4875l9.1395 66.6285z"/>
   <path id="_81662280" class="fil14" d="M171.202 251.511l0.876 7.935 18.177 3.1785c4.1085,6.135 7.938,13.596 7.938,23.8155l0.7935 6.351 0 7.1445 -0.7935 4.764 0 5.556c1.7775,2.802 -10.284,59.0925 -11.8635,66.729 -3.2205,15.5715 -4.1055,19.056 -1.7145,34.1745 1.3995,8.8575 5.64,26.1465 5.64,34.053 0,1.3155 -1.8015,4.4595 -2.382,5.5575l7.1445 2.382 2.382 -39.693 1.182 -0.042 14.358 -144.839 -3.633 -3.5715 -3.66 -0.6315 -7.4535 -4.1325 -25.5 -9.5565 0.891 -3.1455 -2.382 3.9705z"/>
   <path id="_218359480" class="fil15" d="M193.23 209.636c2.271,13.2765 6.5295,17.0445 15.2835,21.234l14.982 3.558 0.102 0.4125 -3.969 0 1.0215 11.8905 -0.3705 0.7425 23.1645 4.038 0 -14.2905 -6.351 0c-3.1245,0 -5.2815,-0.405 -7.1475,-1.4265l63.5115 1.4265 22.2285 -2.3805 1.587 -0.795 19.053 -5.556 7.1445 -5.5575 3.1755 -3.969c1.1205,-0.822 1.9965,-3.0165 2.676,-6.2115l0.4995 -4.9035 -0.7935 3.1755 0 2.382c-3.276,0.8745 -1.3995,2.121 -7.608,3.507 -3.3405,0.7455 -5.283,1.257 -9.063,1.257l-23.022 0 -31.755 -2.3775 -2.382 -0.0045 -5.5455 -13.161 0.783 -0.3345c-2.811,-1.134 -6.282,-20.3595 -7.6425,-24.906 -2.5635,-8.5575 -4.425,-16.3155 -6.942,-24.813 -2.5455,-8.5935 -4.641,-16.1565 -7.1505,-24.6045 -1.1055,-3.723 -1.8885,-10.1805 -4.578,-11.298 -3.216,-1.338 -10.5435,-0.99 -11.793,-4.0845l-31.0905 -5.667 -10.1895 -3.066c-1.803,3.4065 -2.931,8.439 -2.6415,13.9575l4.8225 91.8255z"/>
   <path id="_81760144" class="fil15" d="M445.084 418.221l-3.969 4.764 -0.966 5.5245 5.7285 4.0005 1.587 1.5885c3.7635,2.52 6.351,7.986 6.351,14.289l0 3.969c0,2.418 -0.36,2.904 -0.7935,4.764l5.799 14.193 14.0475 -3.873 14.289 -16.671 -9.456 2.6115 -0.069 -3.405 0.7935 -9.5265 -0.7935 -9.5265c-3.8115,-7.941 -9.1335,-16.671 -20.6415,-16.671l-0.7935 0 -7.1445 0.7935 -3.969 3.1755z"/>
   <path id="_46645680" class="fil15" d="M402.216 438.861c-2.5665,5.3475 0.4065,15.264 1.725,19.71 2.7975,9.4395 9.171,15.444 16.848,19.9215 8.3655,4.878 12.759,4.701 21.066,1.2195 3.8865,-1.6275 8.094,-4.7505 8.7855,-13.065l-9.474 4.083 -3.2265 -4.083 -3.1755 -3.969 -3.1755 -4.764 -3.9705 -7.938 -3.1755 -11.115 -0.8625 -11.112 -19.0695 10.962 -2.295 0.15z"/>
   <path id="_80736376" class="fil15" d="M114.838 492.844l-1.83 11.8815c-0.2265,3.06 0.639,6.465 1.7115,9.669 3.6465,10.893 8.2545,20.2725 18.837,25.4805 1.887,0.9285 3.5655,2.1885 5.8905,2.1885 3.0645,0 11.073,-5.5095 12.4545,-8.187 1.6965,-3.291 4.6725,-10.7655 5.0115,-14.835l-15.8445 3.354 -1.6215 -4.149 -2.3805 -4.7625 -1.5885 -6.351 -2.382 -10.32 0 -15.084 -1.548 -0.912 -16.71 12.027z"/>
   <path id="_82026464" class="fil15" d="M160.882 469.822l-6.351 9.5265 3.1755 0c4.7115,0 14.067,6.5115 15.0825,10.32 3.321,2.223 5.5575,7.875 5.5575,13.4955l0 3.1755c0,2.736 -0.5865,3.0735 -0.7935,5.556l21.4335 -9.525 1.5885 -12.702c0,-12.171 -12.8265,-23.8155 -25.404,-23.8155 -4.5945,0 -11.595,2.259 -14.289,3.969z"/>
   <polygon id="_81427304" class="fil15" points="229.205,89.5635 262.497,89.5635 261.702,72.8925 261.702,60.1905 229.14,60.0915 "/>
   <polygon id="_84265520" class="fil15" points="174.378,519.042 172.79,519.836 174.585,539.36 195.018,530.155 201.369,525.393 202.162,524.598 205.338,520.629 192.633,519.885 193.646,511.128 "/>
   <path id="_64560424" class="fil15" d="M412.536 419.015l-0.7935 0.795c4.7745,-0.1065 8.379,-3.4545 10.0395,-6.234l-4.4835 -12.0255c-2.1915,1.467 -7.938,5.5065 -7.938,8.733 0,2.961 6.2595,7.71 3.1755,8.7315z"/>
   <polygon id="_83149272" class="fil15" points="263.291,252.305 262.497,238.016 254.558,238.016 254.558,252.305 "/>
   <path id="_82275800" class="fil16" d="M198.194 260.243c10.29,0 15.645,8.9805 20.64,9.5265 0,7.4505 1.0365,19.5795 -3.969,22.2285l0.798 0.0825 -12.8685 123.743 -1.425 0.0165 0 6.351 -0.9405 15.0735 -1.4415 0.0105 0 9.5265 -0.7935 8.7315 0.8625 1.5465 199.191 -36.4755c-1.7145,-2.466 -11.481,-70.4805 -13.1865,-80.49 -1.263,-7.407 -1.875,-13.836 -1.878,-21.9375 -0.003,-7.251 -3.0555,-13.776 -3.198,-19.824 -0.0615,-2.601 -1.8585,-19.935 -2.4765,-21.339 -0.975,-2.2125 -4.665,-15.675 -4.665,-18.357l0 -2.382 -10.32 0 -127.817 11.856 -15.078 0.0525c-2.124,0 -2.349,-1.146 -3.1755,-2.382l-3.9705 0 -0.966 -3.1305 -4.953 -2.6355c-5.037,-0.705 -10.6785,-4.761 -16.791,-6.4545 -4.257,-1.179 -14.2635,-3.708 -15.3945,-6.8325l-0.7935 0.7935 -0.891 3.1455 25.5 9.5565z"/>
   <polygon id="_81581432" class="fil16" points="200.575,638.121 293.457,612.717 291.006,531.439 195.757,553.18 "/>
   <path id="_81984584" class="fil16" d="M302.19 610.335l83.355 -23.022 0.0345 -77.6445 -80.2155 18.105c-1.4325,0.96 -1.395,1.5885 -3.174,1.5885l-2.349 -0.0015 2.349 80.9745z"/>
   <polygon id="_83474688" class="fil16" points="209.185,465.988 217.266,481.325 396.589,446.447 396.659,422.985 202.926,458.543 "/>
   <path id="_218365936" class="fil16" d="M207.72 648.441l2.382 39.693 93.6285 -27.147 0.0465 -5.4015 -0.825 -33.342 -1.557 -0.7935c-1.365,3.771 -39.5265,12.021 -46.044,14.289 -6.33,2.2035 -42.1395,12.579 -47.631,12.702z"/>
   <polygon id="_81721904" class="fil16" points="310.921,619.861 311.715,657.967 395.853,633.32 395.865,595.253 391.101,591.282 395.484,596.48 "/>
   <path id="_83148232" class="fil16" d="M140.243 271.358c-0.8205,3.072 -2.382,2.7645 -2.382,3.969 0,3.6765 5.5815,14.2425 8.7315,15.0825l-0.7395 0.573 11.8545 15.3045c-3.7605,7.107 -7.5105,15.4845 -11.595,22.542 -2.9085,5.0235 -5.619,23.3865 -9.84,25.0905 0,11.79 -10.32,22.6095 -10.32,33.342l-0.048 21.438 3.2235 34.926 3.969 -2.382 0 -13.4955 -1.422 -0.0075 -0.9585 -23.0145 0 -19.8465c3.933,-1.5885 8.1645,-13.986 9.6735,-18.906 1.314,-4.2915 7.425,-14.0775 9.3795,-19.9935 0.87,-2.637 8.427,-17.613 10.101,-19.272 2.5785,-2.556 13.38,-12.4815 16.89,-12.4815 4.767,0 18.0195,2.481 19.0515,6.351l2.382 -10.3215 0 -5.556c-6.9435,0 -17.949,-0.3105 -22.2285,-3.1755l-5.2755 -0.462 -12.4335 -7.5825 -0.549 0.9 0 -3.9705 -0.5685 0.6405 -10.5345 -8.583 -3.981 -13.491 -2.3805 2.382z"/>
   <path id="_83775592" class="fil16" d="M214.071 511.896l-4.8855 6.216 -3.8475 4.899c14.841,0 34.4775,-6.0195 48.3705,-8.787 13.4925,-2.6895 33.558,-6.351 46.212,-10.1535 14.2545,-4.2825 31.7475,-6.5175 46.101,-10.263 6.3615,-1.6605 17.457,-4.2195 23.6775,-4.902 6.939,-0.759 15.411,-4.6245 22.9905,-4.794l0 -7.938c-4.6905,2.25 -36.645,8.0355 -44.4015,9.5805 -14.0085,2.7915 -29.6985,5.568 -44.184,9.006 -7.689,1.824 -14.6925,3.0945 -22.365,4.626 -3.39,0.6765 -7.4265,1.9065 -11.3115,2.1825 -5.127,0.3645 -6.333,2.223 -10.1145,3.381 -7.5915,2.3235 -36.3495,6.9465 -46.242,6.9465z"/>
   <path id="_81550560" class="fil17" d="M438.733 438.861c2.9025,3.3405 1.5915,7.9275 6.351,11.115l0 1.587 5.556 4.764 1.5885 -0.795 0.7935 -7.1445 0 -0.7935c0,-4.9185 -4.614,-9.966 -5.5575,-13.4955l-1.587 -1.5885 -1.5885 0 -5.2785 -3.6555 -0.2775 10.0065z"/>
   <path id="_82476352" class="fil18" d="M433.176 388.848l-7.938 2.382 -2.382 1.587 -3.1755 1.5885 -7.938 4.7625 -5.4375 4.1385 -9.864 -22.65 -5.34 -28.326 10.3215 68.2725 11.1135 -1.5885c3.084,-1.0215 -3.1755,-5.7705 -3.1755,-8.7315 0,-3.2265 5.7465,-7.266 7.938,-8.733l2.382 -1.587 2.382 -0.795c2.4165,-2.1 9.915,-5.9505 14.289,-3.1755l3.969 4.764c4.02,-2.6925 6.384,-6.6855 6.384,-13.515l-13.5285 1.6065z"/>
   <path id="_84265712" class="fil19" d="M243.444 251.511l8.7315 1.587 36.5175 0 -8.7315 -0.7935 -16.671 0 -8.733 0 0 -14.289 7.9395 0 17.4645 0 8.7315 -0.795 4.764 0 -63.5115 -1.4265c1.866,1.0215 4.023,1.4265 7.1475,1.4265l6.351 0 0 14.2905z"/>
   <path id="_81199264" class="fil1" d="M304.57 200.703l-6.351 0 0 -1.587 3.1755 0c1.857,0 2.0535,0.237 3.1755,0.7935l1.5885 -0.7935 4.0095 -0.582c-0.981,2.385 0.9885,0.3645 -2.4225,2.169l-3.1755 0z"/>
  </g>
 </g>
</svg>
